<?xml version="1.0" encoding="UTF-8" standalone="no"?>
<!DOCTYPE svg PUBLIC "-//W3C//DTD SVG 1.1//EN" "http://www.w3.org/Graphics/SVG/1.1/DTD/svg11.dtd">
<svg width="100%" height="100%" viewBox="0 0 216 59" version="1.1" xmlns="http://www.w3.org/2000/svg" xmlns:xlink="http://www.w3.org/1999/xlink" xml:space="preserve" xmlns:serif="http://www.serif.com/" style="fill-rule:evenodd;clip-rule:evenodd;stroke-linejoin:round;stroke-miterlimit:2;">
    <g transform="matrix(1,0,0,1,-148.255358,-226.775313)">
        <g transform="matrix(0.67205,0,0,0.67205,69.499279,14.734132)">
            <g transform="matrix(0,-0.393538,0.393538,0,47.457786,457.581152)">
                <path d="M190.623,361.611C160.554,346.067 140,314.684 140,278.5L162,278.5C162,312.266 173.098,342.097 189.736,360.639C190.03,360.966 190.326,361.29 190.623,361.611Z" style="fill:url(#_Linear1);"/>
            </g>
            <g transform="matrix(0,-0.393538,0.393538,0,47.457786,457.581152)">
                <path d="M172,278.5L198,278.5C198,316.7 204.279,349.776 212.931,366.22C213.036,366.419 213.142,366.617 213.248,366.812C189.232,354.084 172,319.351 172,278.5Z" style="fill:white;"/>
            </g>
            <g transform="matrix(0,-0.393538,0.393538,0,47.457786,465.451903)">
                <path d="M269,278.5L295,278.5C295,319.351 277.768,354.084 253.752,366.812C253.858,366.617 253.964,366.419 254.069,366.22C262.721,349.776 269,316.7 269,278.5Z" style="fill:url(#_Linear2);"/>
            </g>
            <g transform="matrix(0,-0.393538,0.393538,0,47.457786,465.451903)">
                <path d="M305,278.5L327,278.5C327,314.684 306.446,346.067 276.377,361.611C276.674,361.29 276.97,360.966 277.264,360.639C293.902,342.097 305,312.266 305,278.5Z" style="fill:white;"/>
            </g>
            <g transform="matrix(0,-0.393538,-0.393538,-0,266.461429,451.284552)">
                <path d="M228.623,374.111C198.554,358.567 178,327.184 178,291L200,291C200,324.766 211.098,354.597 227.736,373.139C228.03,373.466 228.326,373.79 228.623,374.111Z" style="fill:url(#_Linear3);"/>
            </g>
            <g transform="matrix(0,-0.393538,-0.393538,-0,266.461429,451.284552)">
                <path d="M210,291L236,291C236,329.2 242.279,362.276 250.931,378.72C251.036,378.919 251.142,379.117 251.248,379.312C227.232,366.584 210,331.851 210,291Z" style="fill:white;"/>
            </g>
            <g transform="matrix(0,-0.393538,-0.393538,-0,266.461429,459.155303)">
                <path d="M307,291L333,291C333,331.851 315.768,366.584 291.752,379.312C291.858,379.117 291.964,378.919 292.069,378.72C300.721,362.276 307,329.2 307,291Z" style="fill:url(#_Linear4);"/>
            </g>
            <g transform="matrix(0,-0.393538,-0.393538,-0,266.461429,459.155303)">
                <path d="M343,291L365,291C365,327.184 344.446,358.567 314.377,374.111C314.674,373.79 314.97,373.466 315.264,373.139C331.902,354.597 343,324.766 343,291Z" style="fill:white;"/>
            </g>
        </g>
        <g transform="matrix(1,0,0,1,-76.567637,10.661443)">
            <path d="M296.428,258.198C294.13,258.198 292.171,257.812 290.552,257.041C288.933,256.27 287.673,255.234 286.77,253.935C285.868,252.636 285.349,251.186 285.215,249.586L290.168,249.308C290.431,250.703 291.076,251.804 292.103,252.611C293.13,253.417 294.578,253.82 296.447,253.82C298.2,253.82 299.541,253.578 300.469,253.095C301.397,252.612 301.861,251.868 301.861,250.863C301.861,250.21 301.702,249.671 301.385,249.246C301.069,248.82 300.472,248.452 299.595,248.142C298.719,247.831 297.426,247.522 295.717,247.215C293.208,246.735 291.237,246.163 289.803,245.497C288.37,244.831 287.352,243.994 286.751,242.986C286.149,241.978 285.848,240.757 285.848,239.324C285.848,237.845 286.223,236.519 286.971,235.345C287.72,234.171 288.835,233.238 290.317,232.547C291.799,231.855 293.625,231.51 295.794,231.51C298.06,231.51 299.932,231.898 301.41,232.676C302.889,233.453 304.039,234.471 304.861,235.729C305.683,236.987 306.213,238.351 306.45,239.823L301.477,240.111C301.304,239.286 300.973,238.558 300.483,237.927C299.994,237.297 299.354,236.799 298.563,236.435C297.773,236.07 296.844,235.887 295.775,235.887C294.072,235.887 292.821,236.222 292.021,236.891C291.221,237.559 290.821,238.37 290.821,239.324C290.821,240.098 291.014,240.721 291.401,241.191C291.789,241.662 292.432,242.046 293.331,242.343C294.231,242.641 295.448,242.927 296.984,243.202C299.563,243.644 301.563,244.192 302.984,244.845C304.405,245.497 305.402,246.302 305.975,247.259C306.548,248.215 306.834,249.404 306.834,250.825C306.834,252.361 306.396,253.678 305.519,254.775C304.642,255.873 303.423,256.718 301.861,257.31C300.299,257.902 298.488,258.198 296.428,258.198ZM314.284,264.822L314.284,260.732L317.394,260.732C318.271,260.732 318.93,260.601 319.371,260.338C319.813,260.076 320.146,259.631 320.37,259.004L321.215,256.758L319.602,256.758L310.29,232.086L315.493,232.086L322.751,252.188L329.509,232.086L334.712,232.086L324.536,260.521C324.011,262.031 323.218,263.125 322.155,263.804C321.093,264.482 319.666,264.822 317.874,264.822L314.284,264.822ZM342.821,236.655C343.134,235.837 343.541,235.12 344.043,234.505C344.869,233.494 345.869,232.742 347.043,232.249C348.218,231.756 349.477,231.51 350.821,231.51C352.741,231.51 354.328,231.935 355.583,232.787C356.837,233.638 357.784,234.79 358.424,236.243C359.064,237.695 359.384,239.334 359.384,241.158L359.384,257.622L354.527,257.622L354.527,242.415C354.527,240.194 354.107,238.522 353.269,237.399C352.431,236.276 351.151,235.714 349.429,235.714C348.258,235.714 347.197,235.975 346.247,236.497C345.296,237.019 344.538,237.782 343.971,238.787C343.405,239.791 343.122,241.033 343.122,242.511L343.122,257.622L338.264,257.622L338.264,232.086L342.709,232.086L342.821,236.655ZM375.82,258.198C373.426,258.198 371.331,257.647 369.536,256.547C367.741,255.446 366.349,253.892 365.36,251.886C364.371,249.879 363.877,247.535 363.877,244.854C363.877,242.172 364.371,239.835 365.36,237.841C366.349,235.847 367.741,234.293 369.536,233.18C371.331,232.066 373.426,231.51 375.82,231.51C377.752,231.51 379.485,231.873 381.017,232.599C382.55,233.326 383.816,234.372 384.815,235.739C385.813,237.105 386.476,238.754 386.802,240.687L381.829,240.994C381.464,239.382 380.756,238.143 379.703,237.279C378.65,236.415 377.362,235.983 375.839,235.983C373.688,235.983 372.002,236.772 370.779,238.35C369.557,239.927 368.946,242.095 368.946,244.854C368.946,247.612 369.557,249.78 370.779,251.358C372.002,252.935 373.688,253.724 375.839,253.724C377.368,253.724 378.685,253.27 379.789,252.361C380.893,251.452 381.624,250.102 381.983,248.31L386.956,248.617C386.629,250.55 385.956,252.233 384.935,253.667C383.914,255.1 382.625,256.214 381.066,257.007C379.508,257.801 377.759,258.198 375.82,258.198ZM397.592,236.175L389.528,236.175L389.528,232.086L397.592,232.086L397.592,226.105L402.45,226.105L402.45,232.086L412.376,232.086L412.376,236.175L402.45,236.175L402.45,250.057C402.45,251.241 402.727,252.116 403.28,252.683C403.834,253.249 404.677,253.532 405.81,253.532L412.376,253.532L412.376,257.622L405.292,257.622C402.687,257.622 400.752,257.018 399.488,255.812C398.224,254.605 397.592,252.757 397.592,250.268L397.592,236.175ZM419.884,264.822L419.884,260.732L422.994,260.732C423.871,260.732 424.53,260.601 424.971,260.338C425.413,260.076 425.746,259.631 425.97,259.004L426.815,256.758L425.202,256.758L415.89,232.086L421.093,232.086L428.351,252.188L435.109,232.086L440.312,232.086L430.136,260.521C429.611,262.031 428.818,263.125 427.755,263.804C426.693,264.482 425.266,264.822 423.474,264.822L419.884,264.822Z" style="fill:url(#_Radial5);"/>
        </g>
    </g>
    <defs>
        <linearGradient id="_Linear1" x1="0" y1="0" x2="1" y2="0" gradientUnits="userSpaceOnUse" gradientTransform="matrix(0,83.11128,-83.11128,0,151.496424,278.500004)"><stop offset="0" style="stop-color:rgb(203,203,203);stop-opacity:1"/><stop offset="1" style="stop-color:white;stop-opacity:1"/></linearGradient>
        <linearGradient id="_Linear2" x1="0" y1="0" x2="1" y2="0" gradientUnits="userSpaceOnUse" gradientTransform="matrix(0,88.312141,-88.312141,0,283.205268,278.500004)"><stop offset="0" style="stop-color:rgb(203,203,203);stop-opacity:1"/><stop offset="1" style="stop-color:white;stop-opacity:1"/></linearGradient>
        <linearGradient id="_Linear3" x1="0" y1="0" x2="1" y2="0" gradientUnits="userSpaceOnUse" gradientTransform="matrix(-0,83.111272,83.111272,0,191.302087,291.000001)"><stop offset="0" style="stop-color:rgb(203,203,203);stop-opacity:1"/><stop offset="1" style="stop-color:white;stop-opacity:1"/></linearGradient>
        <linearGradient id="_Linear4" x1="0" y1="0" x2="1" y2="0" gradientUnits="userSpaceOnUse" gradientTransform="matrix(-0,88.312141,88.312141,0,323.108449,290.999993)"><stop offset="0" style="stop-color:rgb(203,203,203);stop-opacity:1"/><stop offset="1" style="stop-color:white;stop-opacity:1"/></linearGradient>
        <radialGradient id="_Radial5" cx="0" cy="0" r="1" gradientUnits="userSpaceOnUse" gradientTransform="matrix(97,96.483125,-96.483125,97,311,225.855432)"><stop offset="0" style="stop-color:white;stop-opacity:1"/><stop offset="0.52" style="stop-color:rgb(243,243,243);stop-opacity:1"/><stop offset="1" style="stop-color:rgb(203,203,203);stop-opacity:1"/></radialGradient>
    </defs>
</svg>
